<?xml version="1.0" standalone="no"?>
<!DOCTYPE svg PUBLIC "-//W3C//DTD SVG 20010904//EN"
 "http://www.w3.org/TR/2001/REC-SVG-20010904/DTD/svg10.dtd">
<svg version="1.0" xmlns="http://www.w3.org/2000/svg"
 width="304.000000pt" height="304.000000pt" viewBox="0 0 304.000000 304.000000"
 preserveAspectRatio="xMidYMid meet">
<metadata>
Created by potrace 1.14, written by Peter Selinger 2001-2017
</metadata>
<g transform="translate(0.000000,304.000000) scale(0.100000,-0.100000)"
fill="#000000" stroke="none">
<path d="M1279 3020 c-483 -81 -901 -386 -1117 -816 -162 -322 -203 -715 -112
-1068 91 -353 318 -672 624 -878 342 -229 747 -306 1171 -223 11 2 60 15 108
29 575 169 998 667 1075 1266 11 86 7 369 -7 430 -6 30 -14 71 -17 90 -18 109
-99 313 -179 446 -191 321 -477 549 -836 668 -150 49 -269 68 -449 71 -112 2
-185 -2 -261 -15z"/>
</g>
</svg>
